<svg width="594" height="94" viewBox="0 0 594 94" fill="none" xmlns="http://www.w3.org/2000/svg">
<path d="M48.6211 89.864C43.557 91.7771 38.0688 92.8279 32.335 92.8279H0V72.8113H30.4561C32.4641 72.8113 34.4191 72.5827 36.2969 72.1531L48.6211 89.864ZM32.335 0.637451C57.7927 0.637451 78.4307 21.2754 78.4307 46.7332C78.4305 61.2654 71.703 74.224 61.1953 82.6726L48.9678 65.1003C53.6455 60.3866 56.5361 53.8967 56.5361 46.7312C56.5361 32.3279 44.8594 20.6521 30.4561 20.6521H0V0.637451H32.335ZM28.3945 29.8816C37.7025 29.8816 45.248 37.4271 45.248 46.7351C45.248 56.043 37.7025 63.5886 28.3945 63.5886H25.3027C15.9948 63.5886 8.44832 56.043 8.44824 46.7351C8.44824 37.4271 15.9948 29.8816 25.3027 29.8816H28.3945Z" fill="#1C2524"/>
<path d="M569.339 93.246C563.884 93.246 559.006 92.0168 554.704 89.5584C550.401 87.1 546.983 83.7197 544.447 79.4174C541.989 75.1152 540.76 70.2752 540.76 64.8974C540.76 59.5965 541.989 54.8333 544.447 50.6079C546.906 46.3057 550.248 42.9253 554.473 40.4669C558.699 38.0085 563.423 36.7793 568.647 36.7793C573.564 36.7793 577.905 37.8933 581.669 40.1212C585.511 42.3491 588.507 45.4606 590.658 49.4555C592.886 53.3736 594 57.9063 594 63.0536C594 63.6682 593.961 64.3981 593.885 65.2431C593.808 66.0114 593.654 66.9333 593.424 68.0089H546.522V61.0946H589.045L586.164 63.6298C586.24 59.6349 585.549 56.2161 584.089 53.3736C582.706 50.4542 580.671 48.2263 577.982 46.6898C575.37 45.0764 572.181 44.2698 568.417 44.2698C564.499 44.2698 561.08 45.1149 558.161 46.805C555.241 48.4952 552.937 50.8768 551.246 53.9498C549.633 56.946 548.826 60.5184 548.826 64.6669C548.826 68.8155 549.672 72.4647 551.362 75.6146C553.129 78.7644 555.549 81.2228 558.622 82.9898C561.772 84.7568 565.382 85.6403 569.454 85.6403C572.758 85.6403 575.792 85.0641 578.558 83.9117C581.324 82.6825 583.667 80.8771 585.587 78.4955L590.773 83.7965C588.238 86.7927 585.088 89.1359 581.324 90.826C577.636 92.4394 573.641 93.246 569.339 93.246Z" fill="#1C2524"/>
<path d="M513.395 93.246C508.095 93.246 503.293 92.0168 498.991 89.5584C494.765 87.0232 491.385 83.6044 488.85 79.3022C486.391 75 485.162 70.1984 485.162 64.8974C485.162 59.5965 486.391 54.8333 488.85 50.6079C491.385 46.3057 494.765 42.9253 498.991 40.4669C503.293 38.0085 508.095 36.7793 513.395 36.7793C517.467 36.7793 521.27 37.5476 524.804 39.0841C528.338 40.6206 531.334 42.7717 533.793 45.5374L528.492 50.9536C526.648 48.8793 524.42 47.3044 521.808 46.2288C519.196 45.0765 516.392 44.5003 513.395 44.5003C509.554 44.5003 506.135 45.3837 503.139 47.1507C500.143 48.9177 497.8 51.3377 496.11 54.4107C494.42 57.4069 493.574 60.9025 493.574 64.8974C493.574 68.8155 494.42 72.3495 496.11 75.4993C497.8 78.5724 500.143 80.9924 503.139 82.7593C506.135 84.5263 509.554 85.4098 513.395 85.4098C516.469 85.4098 519.311 84.872 521.923 83.7965C524.535 82.6441 526.763 81.0308 528.607 78.9565L534.023 84.3727C531.488 87.2152 528.415 89.4048 524.804 90.9413C521.27 92.4778 517.467 93.246 513.395 93.246Z" fill="#1C2524"/>
<path d="M445.955 92.0936V37.9317H454.022V92.0936H445.955ZM454.022 60.5184L450.68 59.0203C450.68 52.1828 452.332 46.7666 455.635 42.7717C459.015 38.7768 463.625 36.7793 469.464 36.7793C472.153 36.7793 474.611 37.2787 476.839 38.2774C479.067 39.1993 481.141 40.6974 483.062 42.7717L477.761 48.4184C476.455 46.9587 474.995 45.9215 473.382 45.3069C471.845 44.6923 470.078 44.385 468.081 44.385C463.932 44.385 460.552 45.7679 457.94 48.5336C455.328 51.2225 454.022 55.2174 454.022 60.5184Z" fill="#1C2524"/>
<path d="M409.085 93.246C404.706 93.246 400.788 92.2473 397.33 90.2498C393.873 88.1755 391.146 85.3714 389.149 81.8374C387.228 78.3034 386.268 74.1549 386.268 69.3917V37.9316H394.45V69.046C394.45 72.3495 395.026 75.2304 396.178 77.6888C397.407 80.1472 399.136 82.0679 401.364 83.4507C403.592 84.8336 406.165 85.525 409.085 85.525C413.617 85.525 417.19 84.0269 419.802 81.0307C422.491 78.0345 423.835 74.0396 423.835 69.046V37.9316H431.902V69.3917C431.902 74.078 430.942 78.2266 429.021 81.8374C427.1 85.4482 424.411 88.2523 420.954 90.2498C417.497 92.2473 413.541 93.246 409.085 93.246Z" fill="#1C2524"/>
<path d="M348.706 93.246C343.482 93.246 338.719 91.9784 334.416 89.4432C330.191 86.9079 326.811 83.4892 324.276 79.187C321.817 74.8847 320.588 70.0831 320.588 64.7822C320.588 59.558 321.817 54.8333 324.276 50.6079C326.811 46.3825 330.191 43.0406 334.416 40.5822C338.719 38.0469 343.482 36.7793 348.706 36.7793C354.007 36.7793 358.77 38.0085 362.996 40.4669C367.221 42.9253 370.563 46.3057 373.021 50.6079C375.557 54.8333 376.824 59.558 376.824 64.7822C376.824 70.16 375.557 75 373.021 79.3022C370.563 83.5276 367.221 86.9079 362.996 89.4432C358.77 91.9784 354.007 93.246 348.706 93.246ZM348.706 85.4098C352.547 85.4098 355.928 84.5263 358.847 82.7593C361.843 80.9924 364.186 78.5339 365.876 75.3841C367.643 72.2343 368.527 68.7003 368.527 64.7822C368.527 60.8641 367.643 57.4069 365.876 54.4107C364.186 51.3377 361.843 48.9177 358.847 47.1507C355.928 45.3837 352.547 44.5003 348.706 44.5003C344.942 44.5003 341.561 45.3837 338.565 47.1507C335.569 48.9177 333.226 51.3377 331.536 54.4107C329.845 57.4069 329 60.8641 329 64.7822C329 68.7771 329.845 72.3495 331.536 75.4993C333.226 78.5724 335.569 80.9924 338.565 82.7593C341.561 84.5263 344.942 85.4098 348.706 85.4098Z" fill="#1C2524"/>
<path d="M287.212 93.2437C281.066 93.2437 275.765 92.0913 271.309 89.7865C266.853 87.4049 262.935 84.1014 259.555 79.876L265.432 74.1141C268.121 77.8786 271.232 80.6827 274.766 82.5265C278.377 84.3703 282.641 85.2922 287.558 85.2922C292.628 85.2922 296.738 84.1399 299.888 81.8351C303.038 79.5303 304.613 76.3421 304.613 72.2703C304.613 69.1205 303.883 66.5468 302.423 64.5494C300.964 62.4751 299.043 60.8233 296.661 59.5941C294.357 58.2881 291.783 57.1357 288.94 56.137C286.098 55.1382 283.255 54.1011 280.413 53.0255C277.647 51.8732 275.073 50.4519 272.692 48.7617C270.31 47.0716 268.39 44.9205 266.93 42.3084C265.547 39.6963 264.856 36.3544 264.856 32.2827C264.856 27.9804 265.893 24.2928 267.967 21.2198C270.041 18.1468 272.884 15.8036 276.495 14.1903C280.105 12.5001 284.216 11.655 288.825 11.655C293.973 11.655 298.544 12.6538 302.539 14.6512C306.61 16.6487 309.991 19.3376 312.68 22.7179L306.918 28.4798C304.459 25.5604 301.77 23.3325 298.851 21.796C295.932 20.2595 292.513 19.4912 288.595 19.4912C283.985 19.4912 280.298 20.5668 277.532 22.7179C274.766 24.869 273.383 27.8652 273.383 31.7065C273.383 34.7027 274.075 37.1227 275.458 38.9665C276.917 40.8103 278.838 42.3468 281.219 43.576C283.601 44.8052 286.175 45.9192 288.94 46.9179C291.783 47.8398 294.626 48.877 297.468 50.0294C300.311 51.1817 302.884 52.6414 305.189 54.4084C307.571 56.1754 309.491 58.4417 310.951 61.2075C312.411 63.8963 313.14 67.3535 313.14 71.5789C313.14 78.4164 310.797 83.7557 306.111 87.597C301.501 91.3615 295.202 93.2437 287.212 93.2437Z" fill="#1C2524"/>
<path d="M223.084 92.0946V8.43164H240.715V92.0946H223.084Z" fill="#1C2524"/>
<path d="M177.125 93.2456C171.978 93.2456 167.368 91.978 163.296 89.4427C159.301 86.9075 156.113 83.4503 153.732 79.0713C151.427 74.6922 150.274 69.6986 150.274 64.0903C150.274 58.4821 151.427 53.4884 153.732 49.1094C156.113 44.7303 159.301 41.2732 163.296 38.7379C167.368 36.2027 171.978 34.9351 177.125 34.9351C180.889 34.9351 184.27 35.6649 187.266 37.1246C190.339 38.5843 192.836 40.6201 194.756 43.2322C196.677 45.7674 197.753 48.6868 197.983 51.9903V76.1903C197.753 79.4938 196.677 82.4516 194.756 85.0637C192.913 87.5989 190.454 89.5964 187.381 91.0561C184.308 92.5158 180.889 93.2456 177.125 93.2456ZM180.697 77.3427C184.462 77.3427 187.496 76.1135 189.801 73.6551C192.106 71.1199 193.258 67.9316 193.258 64.0903C193.258 61.4783 192.72 59.1735 191.645 57.176C190.646 55.1786 189.187 53.6421 187.266 52.5665C185.422 51.4141 183.271 50.8379 180.813 50.8379C178.354 50.8379 176.165 51.4141 174.244 52.5665C172.4 53.6421 170.902 55.1786 169.75 57.176C168.674 59.1735 168.136 61.4783 168.136 64.0903C168.136 66.6256 168.674 68.8919 169.75 70.8894C170.825 72.8868 172.323 74.4618 174.244 75.6141C176.165 76.7665 178.316 77.3427 180.697 77.3427ZM192.567 92.0932V76.997L195.217 63.3989L192.567 49.8008V36.0874H209.853V92.0932H192.567Z" fill="#1C2524"/>
<path d="M116.437 93.3625C110.367 93.3625 104.951 92.1333 100.188 89.6749C95.5016 87.1397 91.814 83.6441 89.1251 79.1882C86.4362 74.7324 85.0918 69.7003 85.0918 64.092C85.0918 58.4838 86.3978 53.4901 89.0099 49.1111C91.6988 44.6552 95.3096 41.1596 99.8423 38.6244C104.375 36.0891 109.484 34.8215 115.169 34.8215C120.7 34.8215 125.579 36.0123 129.804 38.3939C134.03 40.7755 137.333 44.079 139.715 48.3044C142.173 52.5298 143.402 57.3698 143.402 62.8244C143.402 63.8232 143.326 64.8987 143.172 66.0511C143.095 67.1266 142.903 68.3943 142.596 69.854L94.3109 69.9692V57.8692L135.105 57.7539L127.499 62.8244C127.423 59.5977 126.923 56.9473 126.001 54.873C125.079 52.7219 123.697 51.1085 121.853 50.033C120.086 48.8806 117.896 48.3044 115.284 48.3044C112.518 48.3044 110.098 48.9574 108.024 50.2635C106.027 51.4927 104.452 53.2596 103.299 55.5644C102.224 57.8692 101.686 60.6733 101.686 63.9768C101.686 67.2803 102.262 70.1228 103.415 72.5044C104.644 74.8092 106.334 76.6146 108.485 77.9206C110.713 79.1498 113.325 79.7644 116.321 79.7644C119.087 79.7644 121.584 79.3035 123.812 78.3816C126.04 77.3828 127.999 75.9232 129.689 74.0025L139.369 83.6825C136.603 86.9092 133.261 89.3292 129.343 90.9425C125.425 92.5559 121.123 93.3625 116.437 93.3625Z" fill="#1C2524"/>
</svg>
